Coordinates
version=1
nRows=19
nColumns=33
inDegrees=yes

Units are S.I. units (second, meters, Newtons, ...)
Angles are in degrees.

endheader
time	ground_thorax_rot_x	ground_thorax_rot_y	ground_thorax_rot_z	ground_thorax_tx	ground_thorax_ty	ground_thorax_tz	clav_prot_r	clav_elev_r	scapula_abduction_r	scapula_elevation_r	scapula_upward_rot_r	scapula_winging_r	shoulder_elv_r	plane_of_elev_r	axial_rot_r	elbow_flexion_r	pro_sup_r	wrist_flex_r	wrist_dev_r	clav_prot_l	clav_elev_l	scapula_abduction_l	scapula_elevation_l	scapula_upward_rot_l	scapula_winging_l	shoulder_elv_l	plane_of_elev_l	axial_rot_l	elbow_flexion_l	pro_sup_l	wrist_flex_l	wrist_dev_l
      6.80000000	     -2.68288351	      2.61586677	     10.44704565	     -0.10177479	      1.02432403	      0.01407484	     17.33124894	     -9.08584907	     43.27465894	     -9.96915046	     23.28788513	    -14.79508524	     -5.73031789	    -55.26844300	    120.41174661	    -43.22187892	   -148.68988595	      4.19160710	      6.89281608	     21.79433036	    -11.21096607	    -32.29440428	     -4.71099045	    -22.26547089	      9.49937459	     58.82401242	      1.33255395	     11.96956487	     14.42238698	     19.24054727	     16.96936897	     -6.71927313
      6.81000000	     -2.69475634	      2.53487025	     10.45279698	     -0.10282806	      1.02430877	      0.01379476	     17.32031136	     -9.06897504	     43.24597418	     -9.95054500	     23.27043703	    -14.79399546	     -5.72451258	    -55.30002215	    120.39507059	    -43.22934175	   -148.69355843	      4.19306490	      6.89201609	     21.79613405	    -11.21265775	    -32.29776246	     -4.70116074	    -22.24723104	      9.50249533	     58.84136141	      1.34962409	     11.97001476	     14.43364543	     19.24174341	     16.96643098	     -6.72144038
      6.82000000	     -2.50795172	      2.32895739	     10.68232277	     -0.10284165	      1.02400829	      0.01388725	     17.11427938	     -8.96446076	     42.65914536	     -9.76507214	     22.87554087	    -14.60759312	     -6.09824511	    -55.46842653	    120.46918393	    -44.41838413	   -149.00232965	      4.51207172	      7.00404635	     21.58815834	    -11.27221096	    -31.91764742	     -4.81152062	    -22.57793307	      9.25271090	     58.80392765	      1.15069490	     12.42249509	     14.99976856	     19.41662715	     16.74699382	     -6.89032015
      6.83000000	     -2.44875674	      2.18764868	     10.79570696	     -0.10329919	      1.02396344	      0.01376089	     16.96520642	     -8.99387115	     42.24483466	     -9.72389339	     22.61375758	    -14.42033502	     -6.26239767	    -55.59794104	    120.54685361	    -45.09093872	   -149.38549327	      4.67574698	      7.17030067	     21.42794289	    -11.33317490	    -31.62485392	     -4.87497172	    -22.81457448	      9.05662215	     58.92034667	      1.02956510	     12.63490035	     15.37243995	     19.73115185	     16.53138756	     -7.05631030
      6.84000000	     -2.41252708	      2.05511957	     10.88449470	     -0.10382454	      1.02390882	      0.01359107	     16.83158379	     -9.03604275	     41.86526593	     -9.69657369	     22.36750408	    -14.24213964	     -6.40856730	    -55.71676923	    120.59905877	    -45.72274597	   -149.80030654	      4.80243828	      7.31361763	     21.27877417	    -11.35147859	    -31.35784903	     -4.96362670	    -23.02656141	      8.88908553	     59.03055069	      0.91262707	     12.80253174	     15.78217863	     20.05282080	     16.34308794	     -7.26038432
      6.85000000	     -2.38270255	      1.93163398	     10.97154640	     -0.10436649	      1.02383592	      0.01340480	     16.70967091	     -9.07127066	     41.50092444	     -9.66124443	     22.11583732	    -14.07560127	     -6.57807073	    -55.83897502	    120.61883757	    -46.35237105	   -150.21656769	      4.91267231	      7.42100681	     21.14091432	    -11.34167095	    -31.11428068	     -5.06978163	    -23.22445486	      8.74267590	     59.11423169	      0.77664716	     12.95129488	     16.23435942	     20.34496269	     16.18089800	     -7.48704711
      6.86000000	     -2.41529179	      1.79752256	     11.02264995	     -0.10506594	      1.02368278	      0.01326384	     16.61914759	     -9.04840100	     41.22232694	     -9.58942230	     21.91353045	    -13.97666973	     -6.81231876	    -55.89505583	    120.65680298	    -46.97504752	   -150.49592082	      5.03256505	      7.47451709	     21.04410546	    -11.28249231	    -30.94954565	     -5.18478135	    -23.35237238	      8.65722292	     59.23058481	      0.59352034	     13.09461647	     16.65374778	     20.50239636	     16.06212138	     -7.66500903
      6.87000000	     -2.30751336	      1.72771754	     11.11421016	     -0.10551469	      1.02359061	      0.01301493	     16.49996024	     -9.02942235	     40.84774947	     -9.50039185	     21.63531199	    -13.83737034	     -6.99256013	    -56.06930876	    120.54454808	    -47.64949955	   -150.81769963	      5.15657406	      7.50381694	     20.90959254	    -11.24580822	    -30.71305497	     -5.32952872	    -23.58191976	      8.52161908	     59.18134074	      0.47590824	     13.23911392	     17.35319086	     20.64955499	     15.93377293	     -7.91449778
      6.88000000	     -2.27838068	      1.63010449	     11.25203607	     -0.10602419	      1.02354229	      0.01281485	     16.35814712	     -9.10305644	     40.39401597	     -9.47310484	     21.30009636	    -13.61694239	     -7.29191023	    -56.24912865	    120.43870504	    -48.42332202	   -151.34504180	      5.27465727	      7.56255214	     20.75188089	    -11.21399474	    -30.43567663	     -5.48662427	    -23.84566609	      8.35811858	     59.24170182	      0.22422322	     13.31392351	     18.10284440	     20.94541276	     15.75585020	     -8.24767403
      6.89000000	     -2.26808727	      1.54897721	     11.31084447	     -0.10653967	      1.02350013	      0.01259905	     16.21567478	     -9.16217727	     39.96647629	     -9.44447356	     21.00526377	    -13.41146155	     -7.57919293	    -56.40501115	    120.32548471	    -49.20051662	   -151.84765688	      5.39295736	      7.58238776	     20.60487585	    -11.14869232	    -30.18343052	     -5.64818051	    -24.05691065	      8.22068595	     59.31659263	     -0.00926761	     13.39584767	     18.87444577	     21.19746370	     15.60196523	     -8.57377922
      6.90000000	     -2.30842599	      1.46752493	     11.33449937	     -0.10721746	      1.02335036	      0.01243622	     16.10171857	     -9.14289174	     39.60911369	     -9.35637247	     20.73973828	    -13.27979011	     -7.91081969	    -56.50019734	    120.27902064	    -49.99440568	   -152.18689646	      5.54080537	      7.57284349	     20.48081405	    -11.03674481	    -29.97858914	     -5.82095789	    -24.20614583	      8.12305874	     59.42841088	     -0.26060063	     13.53974473	     19.61447641	     21.31779656	     15.47716603	     -8.83372752
      6.91000000	     -2.22649667	      1.41325963	     11.42678941	     -0.10769567	      1.02327392	      0.01216894	     15.95942082	     -9.13319623	     39.16354145	     -9.25872484	     20.41069481	    -13.10678748	     -8.20434573	    -56.69571032	    120.09859724	    -50.80514352	   -152.54621712	      5.69199653	      7.53008383	     20.32223881	    -10.94476469	    -29.70803485	     -6.03056572	    -24.46748147	      7.97968454	     59.38175114	     -0.48541931	     13.68077191	     20.59894352	     21.41543945	     15.34910452	     -9.14889988
      6.92000000	     -2.52866235	      1.46032815	     11.40661832	     -0.10795072	      1.02427492	      0.01182831	     15.54101708	    -10.12744897	     38.14344895	     -9.97385483	     19.93462376	    -12.13989782	     -8.81493381	    -57.17937863	    119.51134425	    -51.83744633	   -154.86666055	      5.65351681	      7.32182007	     20.04075676	    -11.00919918	    -29.22152874	     -6.05665161	    -24.62180705	      7.68249354	     59.91637445	     -1.14572404	     13.15882738	     21.60991626	     22.70156596	     15.03808543	    -10.07462158
      6.93000000	     -2.40281780	      1.34182825	     11.42996763	     -0.10847782	      1.02401368	      0.01162244	     15.37659611	     -9.92546407	     37.73155135	     -9.73966378	     19.70057612	    -12.07529517	     -9.11100830	    -57.31175456	    119.50940824	    -52.73477304	   -155.03084737	      5.85844777	      7.24755709	     19.89565856	    -10.78383413	    -28.99051808	     -6.35591658	    -24.82484842	      7.59634503	     59.74980878	     -1.28647031	     13.56619467	     22.57497553	     22.60913172	     14.96566898	    -10.29776845
      6.94000000	     -2.36371375	      1.27787286	     11.57544353	     -0.10903465	      1.02373444	      0.01139149	     15.24605619	     -9.78081687	     37.26948022	     -9.50650357	     19.30909843	    -11.97603860	     -9.53350909	    -57.50513431	    119.47371054	    -53.68733151	   -155.26297431	      6.07870041	      7.14802300	     19.73088064	    -10.57774189	    -28.72033242	     -6.66925805	    -25.09117783	      7.47573684	     59.64950652	     -1.57875967	     13.87580929	     23.71830050	     22.53988251	     14.86831066	    -10.58328070
      6.95000000	     -2.30627541	      1.23548016	     11.64386767	     -0.10958894	      1.02355115	      0.01116770	     15.13535559	     -9.65992770	     36.82263206	     -9.28434716	     18.89261028	    -11.87125088	     -9.92172217	    -57.70309595	    119.36366565	    -54.70902093	   -155.50076429	      6.31455758	      7.03555891	     19.56969528	    -10.39907647	    -28.45382397	     -6.95892866	    -25.35752335	      7.34841802	     59.59577196	     -1.87183906	     14.10689441	     24.90543338	     22.46437743	     14.76760867	    -10.87744400
      6.96000000	     -2.57736340	      1.28313850	     11.73008800	     -0.10987738	      1.02452101	      0.01072613	     14.77703477	    -10.67196752	     35.76467419	     -9.94958504	     18.19619863	    -10.90428744	    -10.66581374	    -58.38243861	    118.70897943	    -55.96178252	   -157.73346873	      6.55853647	      6.27140570	     19.31011599	    -10.39716783	    -28.00927318	     -7.05732343	    -25.54241483	      7.08703576	     59.92798762	     -2.71148125	     13.71206932	     26.23794651	     22.80600674	     14.74117901	    -11.54625003
      6.97000000	     -2.46285025	      1.19596210	     11.73150905	     -0.11047908	      1.02418939	      0.01061206	     14.63051037	    -10.40779750	     35.31833626	     -9.62753593	     17.86391328	    -10.86651396	    -11.03345736	    -58.55911021	    118.71317260	    -57.08298732	   -157.87641064	      6.82103209	      6.20421411	     19.15312631	    -10.12054667	    -27.76118506	     -7.42533901	    -25.78872413	      6.99603911	     59.81553096	     -2.92342938	     14.02075057	     27.43937349	     22.65612611	     14.65931990	    -11.79601616
      6.98000000	     -2.46948796	      1.14484067	     12.11706938	     -0.11120579	      1.02417714	      0.01031972	     14.53577146	    -10.50293862	     34.69747523	     -9.49171203	     17.14129866	    -10.59416820	    -11.57233924	    -58.92618358	    118.47286949	    -58.09219633	   -158.43112940	      7.08866799	      5.93201306	     18.96097011	     -9.93448788	    -27.44183360	     -7.80390320	    -26.22365409	      6.82927835	     59.75250836	     -3.53896997	     13.87796557	     28.91082903	     22.47514392	     14.69808788	    -12.14810060
